<svg width="301" height="80" viewBox="0 0 301 80" fill="none" xmlns="http://www.w3.org/2000/svg">
<path d="M33.576 12.6364V49H26.9354L11.1151 26.1129H10.8487V49H3.16051V12.6364H9.90767L25.6037 35.5057H25.9233V12.6364H33.576Z" fill="black"/>
<path d="M56.576 12.6364V49H49.9354L34.1151 26.1129H33.8487V49H26.1605V12.6364H32.9077L48.6037 35.5057H48.9233V12.6364H56.576Z" fill="black"/>
<path d="M80.3381 23.4545V38H78.321L70.9276 27.3324H70.7926V38H68.598V23.4545H70.6293L78.0298 34.1364H78.1648V23.4545H80.3381ZM88.0707 38.2202C86.9959 38.2202 86.0702 37.9905 85.2937 37.5312C84.5219 37.0672 83.9253 36.4162 83.5039 35.5781C83.0872 34.7353 82.8789 33.7481 82.8789 32.6165C82.8789 31.4991 83.0872 30.5142 83.5039 29.6619C83.9253 28.8097 84.5124 28.1444 85.2653 27.6662C86.0228 27.188 86.9083 26.9489 87.9215 26.9489C88.5371 26.9489 89.1336 27.0507 89.7113 27.2543C90.2889 27.4579 90.8074 27.7775 91.2667 28.2131C91.726 28.6487 92.0882 29.2145 92.3533 29.9105C92.6185 30.6018 92.7511 31.4422 92.7511 32.4318V33.1847H84.0792V31.5938H90.6701C90.6701 31.035 90.5565 30.5402 90.3292 30.1094C90.1019 29.6738 89.7823 29.3305 89.3704 29.0795C88.9632 28.8286 88.485 28.7031 87.9357 28.7031C87.3391 28.7031 86.8183 28.8499 86.3732 29.1435C85.9329 29.4323 85.592 29.8111 85.3505 30.2798C85.1138 30.7438 84.9954 31.2481 84.9954 31.7926V33.0355C84.9954 33.7647 85.1232 34.3849 85.3789 34.8963C85.6393 35.4077 86.0015 35.7983 86.4656 36.0682C86.9296 36.3333 87.4717 36.4659 88.092 36.4659C88.4944 36.4659 88.8614 36.4091 89.1928 36.2955C89.5243 36.1771 89.8107 36.0019 90.0522 35.7699C90.2937 35.5379 90.4783 35.2514 90.6062 34.9105L92.6161 35.2727C92.4551 35.8646 92.1663 36.383 91.7496 36.8281C91.3377 37.2685 90.8192 37.6117 90.1942 37.858C89.574 38.0994 88.8661 38.2202 88.0707 38.2202ZM102.018 33.4759V27.0909H104.148V38H102.06V36.1108H101.947C101.696 36.6932 101.293 37.1785 100.739 37.5668C100.19 37.9503 99.5059 38.142 98.6868 38.142C97.986 38.142 97.3658 37.9882 96.826 37.6804C96.291 37.3679 95.8696 36.9062 95.5618 36.2955C95.2588 35.6847 95.1072 34.9295 95.1072 34.0298V27.0909H97.2308V33.7741C97.2308 34.5175 97.4368 35.1094 97.8487 35.5497C98.2607 35.9901 98.7957 36.2102 99.4538 36.2102C99.8516 36.2102 100.247 36.1108 100.64 35.9119C101.038 35.7131 101.367 35.4124 101.627 35.0099C101.892 34.6075 102.022 34.0961 102.018 33.4759ZM107.002 38V27.0909H109.054V28.8239H109.168C109.367 28.2367 109.717 27.7751 110.219 27.4389C110.726 27.098 111.299 26.9276 111.938 26.9276C112.07 26.9276 112.227 26.9323 112.407 26.9418C112.591 26.9512 112.736 26.9631 112.84 26.9773V29.0085C112.755 28.9848 112.603 28.9588 112.385 28.9304C112.167 28.8973 111.95 28.8807 111.732 28.8807C111.23 28.8807 110.783 28.9872 110.39 29.2003C110.001 29.4086 109.694 29.6998 109.466 30.0739C109.239 30.4432 109.125 30.8646 109.125 31.3381V38H107.002ZM118.882 38.2202C117.859 38.2202 116.967 37.9858 116.205 37.517C115.442 37.0483 114.85 36.3925 114.429 35.5497C114.008 34.7069 113.797 33.7221 113.797 32.5952C113.797 31.4635 114.008 30.474 114.429 29.6264C114.85 28.7789 115.442 28.1207 116.205 27.652C116.967 27.1832 117.859 26.9489 118.882 26.9489C119.905 26.9489 120.797 27.1832 121.56 27.652C122.322 28.1207 122.914 28.7789 123.335 29.6264C123.757 30.474 123.967 31.4635 123.967 32.5952C123.967 33.7221 123.757 34.7069 123.335 35.5497C122.914 36.3925 122.322 37.0483 121.56 37.517C120.797 37.9858 119.905 38.2202 118.882 38.2202ZM118.889 36.4375C119.552 36.4375 120.101 36.2623 120.537 35.9119C120.973 35.5616 121.295 35.0952 121.503 34.5128C121.716 33.9304 121.822 33.2888 121.822 32.5881C121.822 31.892 121.716 31.2528 121.503 30.6705C121.295 30.0833 120.973 29.6122 120.537 29.2571C120.101 28.902 119.552 28.7244 118.889 28.7244C118.222 28.7244 117.668 28.902 117.227 29.2571C116.792 29.6122 116.467 30.0833 116.254 30.6705C116.046 31.2528 115.942 31.892 115.942 32.5881C115.942 33.2888 116.046 33.9304 116.254 34.5128C116.467 35.0952 116.792 35.5616 117.227 35.9119C117.668 36.2623 118.222 36.4375 118.889 36.4375ZM138.248 23.4545V38H136.231L128.838 27.3324H128.703V38H126.508V23.4545H128.539L135.94 34.1364H136.075V23.4545H138.248ZM145.874 38.2202C144.852 38.2202 143.959 37.9858 143.197 37.517C142.434 37.0483 141.843 36.3925 141.421 35.5497C141 34.7069 140.789 33.7221 140.789 32.5952C140.789 31.4635 141 30.474 141.421 29.6264C141.843 28.7789 142.434 28.1207 143.197 27.652C143.959 27.1832 144.852 26.9489 145.874 26.9489C146.897 26.9489 147.79 27.1832 148.552 27.652C149.314 28.1207 149.906 28.7789 150.327 29.6264C150.749 30.474 150.96 31.4635 150.96 32.5952C150.96 33.7221 150.749 34.7069 150.327 35.5497C149.906 36.3925 149.314 37.0483 148.552 37.517C147.79 37.9858 146.897 38.2202 145.874 38.2202ZM145.881 36.4375C146.544 36.4375 147.094 36.2623 147.529 35.9119C147.965 35.5616 148.287 35.0952 148.495 34.5128C148.708 33.9304 148.815 33.2888 148.815 32.5881C148.815 31.892 148.708 31.2528 148.495 30.6705C148.287 30.0833 147.965 29.6122 147.529 29.2571C147.094 28.902 146.544 28.7244 145.881 28.7244C145.214 28.7244 144.66 28.902 144.219 29.2571C143.784 29.6122 143.46 30.0833 143.246 30.6705C143.038 31.2528 142.934 31.892 142.934 32.5881C142.934 33.2888 143.038 33.9304 143.246 34.5128C143.46 35.0952 143.784 35.5616 144.219 35.9119C144.66 36.2623 145.214 36.4375 145.881 36.4375ZM158.422 27.0909V28.7955H152.463V27.0909H158.422ZM154.061 24.4773H156.185V34.7969C156.185 35.2088 156.247 35.5189 156.37 35.7273C156.493 35.9309 156.651 36.0705 156.846 36.1463C157.044 36.2173 157.26 36.2528 157.492 36.2528C157.662 36.2528 157.811 36.241 157.939 36.2173C158.067 36.1937 158.167 36.1747 158.238 36.1605L158.621 37.9148C158.498 37.9621 158.323 38.0095 158.096 38.0568C157.868 38.1089 157.584 38.1373 157.243 38.142C156.685 38.1515 156.164 38.0521 155.681 37.8438C155.198 37.6354 154.807 37.3134 154.509 36.8778C154.211 36.4422 154.061 35.8954 154.061 35.2372V24.4773ZM165.356 38.2202C164.281 38.2202 163.355 37.9905 162.579 37.5312C161.807 37.0672 161.21 36.4162 160.789 35.5781C160.372 34.7353 160.164 33.7481 160.164 32.6165C160.164 31.4991 160.372 30.5142 160.789 29.6619C161.21 28.8097 161.798 28.1444 162.55 27.6662C163.308 27.188 164.193 26.9489 165.207 26.9489C165.822 26.9489 166.419 27.0507 166.996 27.2543C167.574 27.4579 168.093 27.7775 168.552 28.2131C169.011 28.6487 169.373 29.2145 169.638 29.9105C169.904 30.6018 170.036 31.4422 170.036 32.4318V33.1847H161.364V31.5938H167.955C167.955 31.035 167.842 30.5402 167.614 30.1094C167.387 29.6738 167.067 29.3305 166.656 29.0795C166.248 28.8286 165.77 28.7031 165.221 28.7031C164.624 28.7031 164.103 28.8499 163.658 29.1435C163.218 29.4323 162.877 29.8111 162.636 30.2798C162.399 30.7438 162.281 31.2481 162.281 31.7926V33.0355C162.281 33.7647 162.408 34.3849 162.664 34.8963C162.924 35.4077 163.287 35.7983 163.751 36.0682C164.215 36.3333 164.757 36.4659 165.377 36.4659C165.78 36.4659 166.147 36.4091 166.478 36.2955C166.809 36.1771 167.096 36.0019 167.337 35.7699C167.579 35.5379 167.763 35.2514 167.891 34.9105L169.901 35.2727C169.74 35.8646 169.451 36.383 169.035 36.8281C168.623 37.2685 168.104 37.6117 167.479 37.858C166.859 38.0994 166.151 38.2202 165.356 38.2202ZM180.567 29.7543L178.642 30.0952C178.562 29.849 178.434 29.6146 178.259 29.392C178.088 29.1695 177.856 28.9872 177.563 28.8452C177.269 28.7031 176.902 28.6321 176.462 28.6321C175.861 28.6321 175.359 28.767 174.956 29.0369C174.554 29.3021 174.353 29.6454 174.353 30.0668C174.353 30.4313 174.488 30.7249 174.757 30.9474C175.027 31.17 175.463 31.3523 176.064 31.4943L177.797 31.892C178.801 32.1241 179.549 32.4815 180.042 32.9645C180.534 33.4474 180.78 34.0748 180.78 34.8466C180.78 35.5 180.591 36.0824 180.212 36.5938C179.838 37.1004 179.315 37.4981 178.642 37.7869C177.975 38.0758 177.201 38.2202 176.32 38.2202C175.098 38.2202 174.102 37.9598 173.33 37.4389C172.558 36.9134 172.085 36.1676 171.909 35.2017L173.962 34.8892C174.09 35.4242 174.353 35.8291 174.75 36.1037C175.148 36.3736 175.667 36.5085 176.306 36.5085C177.002 36.5085 177.558 36.3641 177.975 36.0753C178.391 35.7817 178.6 35.4242 178.6 35.0028C178.6 34.6619 178.472 34.3755 178.216 34.1435C177.965 33.9115 177.579 33.7363 177.059 33.6179L175.212 33.2131C174.194 32.9811 173.441 32.6117 172.953 32.1051C172.471 31.5985 172.229 30.9569 172.229 30.1804C172.229 29.5365 172.409 28.973 172.769 28.4901C173.129 28.0071 173.626 27.6307 174.26 27.3608C174.895 27.0862 175.622 26.9489 176.441 26.9489C177.62 26.9489 178.548 27.2045 179.225 27.7159C179.902 28.2225 180.349 28.902 180.567 29.7543Z" fill="black"/>
</svg>
